<?xml version="1.0" encoding="UTF-8" standalone="no"?>
<svg
   class="svg-icon"
   style="overflow:hidden;fill:currentColor"
   viewBox="0 0 669.51593 913.36749"
   version="1.1"
   id="svg18"
   sodipodi:docname="jam-jam.svg"
   inkscape:version="1.4 (86a8ad7, 2024-10-11)"
   width="669.51593"
   height="913.36749"
   inkscape:export-filename="jam-jam.png"
   inkscape:export-xdpi="96"
   inkscape:export-ydpi="96"
   xmlns:inkscape="http://www.inkscape.org/namespaces/inkscape"
   xmlns:sodipodi="http://sodipodi.sourceforge.net/DTD/sodipodi-0.dtd"
   xmlns="http://www.w3.org/2000/svg"
   xmlns:svg="http://www.w3.org/2000/svg">
  <defs
     id="defs18">
    <rect
       x="-275.03762"
       y="351.1881"
       width="424.65092"
       height="323.41557"
       id="rect2" />
  </defs>
  <sodipodi:namedview
     id="namedview18"
     pagecolor="#ffffff"
     bordercolor="#000000"
     borderopacity="0.25"
     inkscape:showpageshadow="2"
     inkscape:pageopacity="0.0"
     inkscape:pagecheckerboard="0"
     inkscape:deskcolor="#d1d1d1"
     inkscape:zoom="1.1162109"
     inkscape:cx="397.77429"
     inkscape:cy="461.83029"
     inkscape:window-width="2560"
     inkscape:window-height="1361"
     inkscape:window-x="2551"
     inkscape:window-y="399"
     inkscape:window-maximized="1"
     inkscape:current-layer="svg18" />
  <rect
     style="fill:#ff5555;stroke:#002300;stroke-width:35;stroke-dasharray:none;stroke-opacity:1"
     id="rect21"
     width="574.67963"
     height="683.56256"
     x="47.418156"
     y="212.30492"
     ry="130.51965" />
  <path
     d="m 652.01661,208.35427 -8.54901,14.22689 c -8.89467,14.75418 -19.25668,27.61111 -30.74122,38.36088 -6.56236,6.21806 -13.55761,11.69789 -20.72486,16.44053 -38.77259,25.6084 -85.7477,30.66741 -129.01042,10.85523 -37.73564,35.62097 -82.98501,53.43043 -128.23354,53.43043 -45.24854,0 -90.49707,-17.81048 -128.23355,-53.43043 -15.54343,7.06072 -31.51893,11.06513 -47.40717,11.90881 -2.41789,0.10546 -4.83578,0.21092 -7.25367,0.21092 -19.17026,0 -38.1677,-4.32079 -55.956202,-12.646 -10.27559,-4.8481 -20.20637,-10.95967 -29.53226,-18.44223 -15.2842,-12.22519 -29.01464,-27.92749 -40.32636,-46.6861 l -8.54901,-14.22688 96.196132,-56.27581 h 442.12417 l 14.76656,8.64159 z"
     fill="#9ad14b"
     id="path2"
     style="stroke:#002300;stroke-width:35;stroke-linecap:butt;stroke-linejoin:round;stroke-dasharray:none;stroke-opacity:1;paint-order:fill markers stroke" />
  <path
     d="m 601.58665,58.389882 v 52.798698 c 0,22.55312 -16.40672,40.88988 -36.61311,40.88988 H 104.54241 c -20.206382,0 -36.613112,-18.33676 -36.613112,-40.88988 V 58.389882 C 67.929298,35.836762 84.336028,17.5 104.54241,17.5 h 460.51755 c 20.03355,0 36.52669,18.337786 36.52669,40.889882 z"
     fill="#9ad14b"
     id="path4"
     style="stroke:#002300;stroke-width:35;stroke-dasharray:none;stroke-opacity:1" />
  <path
     d="m 127.42305,776.30119 m -17.17772,0 a 17.177725,17.177725 0 1 0 34.35545,0 17.177725,17.177725 0 1 0 -34.35545,0 z"
     fill="#333333"
     id="path18"
     style="overflow:hidden;fill:currentColor" />
  <path
     d="m 233.07712,754.57156 m -17.17772,0 a 17.177725,17.177725 0 1 0 34.35545,0 17.177725,17.177725 0 1 0 -34.35545,0 z"
     fill="#333333"
     id="path18-8"
     style="overflow:hidden;fill:currentColor" />
  <path
     d="m 181.13106,608.86921 m -17.17772,0 a 17.177725,17.177725 0 1 0 34.35545,0 17.177725,17.177725 0 1 0 -34.35545,0 z"
     fill="#333333"
     id="path22"
     style="overflow:hidden;fill:currentColor" />
  <path
     d="m 376.24551,617.73805 m -17.17772,0 a 17.177725,17.177725 0 1 0 34.35545,0 17.177725,17.177725 0 1 0 -34.35545,0 z"
     fill="#333333"
     id="path23"
     style="overflow:hidden;fill:currentColor" />
  <path
     d="m 525.74879,474.56965 m -17.17772,0 a 17.177725,17.177725 0 1 0 34.35545,0 17.177725,17.177725 0 1 0 -34.35545,0 z"
     fill="#333333"
     id="path24"
     style="overflow:hidden;fill:currentColor" />
  <path
     d="m 305.2948,463.16686 m -17.17772,0 a 17.177725,17.177725 0 1 0 34.35545,0 17.177725,17.177725 0 1 0 -34.35545,0 z"
     fill="#333333"
     id="path25"
     style="overflow:hidden;fill:currentColor" />
  <path
     d="m 516.87996,588.59758 m -17.17772,0 a 17.177725,17.177725 0 1 0 34.35545,0 17.177725,17.177725 0 1 0 -34.35545,0 z"
     fill="#333333"
     id="path26"
     style="overflow:hidden;fill:currentColor" />
  <path
     d="m 443.3953,726.69807 m -17.17772,0 a 17.177725,17.177725 0 1 0 34.35545,0 17.177725,17.177725 0 1 0 -34.35545,0 z"
     fill="#333333"
     id="path27"
     style="overflow:hidden;fill:currentColor" />
  <path
     d="m 554.88927,692.48969 m -17.17772,0 a 17.177725,17.177725 0 1 0 34.35545,0 17.177725,17.177725 0 1 0 -34.35545,0 z"
     fill="#333333"
     id="path28"
     style="overflow:hidden;fill:currentColor" />
  <path
     d="m 499.14228,807.7846 m -17.17772,0 a 17.177725,17.177725 0 1 0 34.35545,0 17.177725,17.177725 0 1 0 -34.35545,0 z"
     fill="#333333"
     id="path29"
     style="overflow:hidden;fill:currentColor" />
  <path
     d="m 359.77481,788.77995 m -17.17772,0 a 17.177725,17.177725 0 1 0 34.35545,0 17.177725,17.177725 0 1 0 -34.35545,0 z"
     fill="#333333"
     id="path30"
     style="overflow:hidden;fill:currentColor" />
  <path
     d="m 296.42596,636.74271 m -17.17772,0 a 17.177725,17.177725 0 1 0 34.35545,0 17.177725,17.177725 0 1 0 -34.35545,0 z"
     fill="#333333"
     id="path31"
     style="overflow:hidden;fill:currentColor" />
  <path
     d="m 203.93664,513.84594 m -17.17772,0 a 17.177725,17.177725 0 1 0 34.35545,0 17.177725,17.177725 0 1 0 -34.35545,0 z"
     fill="#333333"
     id="path32"
     style="overflow:hidden;fill:currentColor" />
  <path
     d="m 187.46594,394.7501 m -17.17772,0 a 17.177725,17.177725 0 1 0 34.35545,0 17.177725,17.177725 0 1 0 -34.35545,0 z"
     fill="#333333"
     id="path33"
     style="overflow:hidden;fill:currentColor" />
  <path
     d="m 94.976618,465.70081 m -17.17772,0 a 17.177725,17.177725 0 1 0 34.355452,0 17.177725,17.177725 0 1 0 -34.355452,0 z"
     fill="#333333"
     id="path34"
     style="overflow:hidden;fill:currentColor" />
  <path
     d="m 88.641738,676.01899 m -17.17772,0 a 17.177725,17.177725 0 1 0 34.355452,0 17.177725,17.177725 0 1 0 -34.355452,0 z"
     fill="#333333"
     id="path35"
     style="overflow:hidden;fill:currentColor" />
  <path
     d="m 272.3534,834.39111 m -17.17772,0 a 17.177725,17.177725 0 1 0 34.35545,0 17.177725,17.177725 0 1 0 -34.35545,0 z"
     fill="#333333"
     id="path36"
     style="overflow:hidden;fill:currentColor" />
  <path
     d="m 429.45855,508.77803 m -17.17772,0 a 17.177725,17.177725 0 1 0 34.35545,0 17.177725,17.177725 0 1 0 -34.35545,0 z"
     fill="#333333"
     id="path37"
     style="overflow:hidden;fill:currentColor" />
  <path
     d="m 471.26879,393.48312 m -17.17772,0 a 17.177725,17.177725 0 1 0 34.35545,0 17.177725,17.177725 0 1 0 -34.35545,0 z"
     fill="#333333"
     id="path38"
     style="overflow:hidden;fill:currentColor" />
  <path
     d="m 591.6316,339.00311 m -17.17772,0 a 17.177725,17.177725 0 1 0 34.35545,0 17.177725,17.177725 0 1 0 -34.35545,0 z"
     fill="#333333"
     id="path39"
     style="overflow:hidden;fill:currentColor" />
  <path
     d="m 595.43253,526.5157 m -17.17772,0 a 17.177725,17.177725 0 1 0 34.35545,0 17.177725,17.177725 0 1 0 -34.35545,0 z"
     fill="#333333"
     id="path40"
     style="overflow:hidden;fill:currentColor" />
  <path
     d="m 77.238948,346.60497 m -17.17772,0 a 17.177725,17.177725 0 1 0 34.35545,0 17.177725,17.177725 0 1 0 -34.35545,0 z"
     fill="#333333"
     id="path41"
     style="overflow:hidden;fill:currentColor" />
  <rect
     style="fill:#ffffff;stroke:#002300;stroke-width:20;stroke-linejoin:round;stroke-dasharray:none;paint-order:fill markers stroke"
     id="rect1"
     width="413.90027"
     height="272.34998"
     x="127.80783"
     y="461.16318"
     ry="18.321045" />
  <text
     xml:space="preserve"
     id="text1"
     style="font-size:192px;font-family:sans-serif;-inkscape-font-specification:sans-serif;text-align:start;writing-mode:lr-tb;direction:ltr;white-space:pre;shape-inside:url(#rect2);display:inline;fill:#ffffff;stroke:#002300;stroke-width:20;stroke-linejoin:round;stroke-dasharray:none;paint-order:fill markers stroke"
     transform="translate(439.1857,138.76713)"><tspan
       x="-275.03711"
       y="525.88354"
       id="tspan2"><tspan
         style="font-stretch:condensed;font-family:Roboto;-inkscape-font-specification:'Roboto Condensed';fill:#000000;stroke:none"
         id="tspan1">JAM</tspan></tspan></text>
</svg>
